<svg width="51" height="46" viewBox="0 0 51 46" fill="none" xmlns="http://www.w3.org/2000/svg">
<path d="M7.89315 45.1286C7.91183 45.129 7.93022 45.1325 7.94724 45.1389C7.96427 45.1453 7.9796 45.1544 7.99233 45.1657L8.24829 45.3986C8.04961 45.587 7.80405 45.7378 7.52841 45.8405C7.20562 45.9526 6.85773 46.0067 6.50777 45.9993C6.17892 46.0049 5.85219 45.9545 5.54792 45.8511C5.27347 45.7562 5.02687 45.6136 4.82484 45.433C4.61864 45.2456 4.45982 45.0261 4.35771 44.7872C4.24589 44.521 4.19068 44.2407 4.19454 43.9589C4.19 43.6752 4.24968 43.3934 4.37051 43.1279C4.48228 42.8875 4.65088 42.668 4.86643 42.4822C5.08491 42.2999 5.34625 42.1567 5.63431 42.0614C5.94943 41.9603 6.285 41.91 6.62295 41.9132C6.93687 41.9069 7.24913 41.9528 7.54121 42.0481C7.79461 42.1391 8.02728 42.2653 8.2291 42.4213L8.01473 42.6701C7.99992 42.6876 7.98151 42.7028 7.96034 42.715C7.93505 42.7294 7.90448 42.7359 7.87395 42.7336C7.84074 42.7317 7.80873 42.7225 7.78117 42.7071L7.66599 42.6409L7.50601 42.5563C7.43695 42.5248 7.36532 42.4974 7.29165 42.4742C7.19675 42.4461 7.09942 42.424 7.00049 42.4081C6.87494 42.3889 6.74741 42.3801 6.61975 42.3816C6.3764 42.3791 6.13489 42.4169 5.90947 42.4927C5.69924 42.563 5.50947 42.6695 5.35275 42.805C5.19322 42.9492 5.07028 43.1184 4.99121 43.3026C4.9011 43.5132 4.85669 43.7354 4.86003 43.9589C4.85619 44.1858 4.90059 44.4116 4.99121 44.6258C5.06929 44.8084 5.18995 44.9765 5.34635 45.1207C5.49289 45.2551 5.67453 45.36 5.87747 45.4277C6.08632 45.4993 6.31049 45.5353 6.53657 45.5335C6.66716 45.5352 6.79769 45.5281 6.9269 45.5124C7.13788 45.4911 7.34027 45.4304 7.51881 45.335C7.60836 45.2862 7.6929 45.2313 7.77157 45.171C7.80446 45.145 7.84772 45.1299 7.89315 45.1286V45.1286Z" fill="#AFB1B8"/>
<path d="M15.284 43.9584C15.288 44.2392 15.2294 44.5182 15.1112 44.7814C15.0069 45.0202 14.8427 45.2379 14.6293 45.4204C14.4158 45.6028 14.1581 45.7458 13.873 45.8399C13.2466 46.0375 12.5541 46.0375 11.9277 45.8399C11.6445 45.7444 11.3884 45.6011 11.1759 45.4191C10.9626 45.2334 10.7971 45.0137 10.6895 44.7735C10.4591 44.2405 10.4591 43.6579 10.6895 43.1248C10.7987 42.8845 10.9639 42.6642 11.1759 42.4765C11.3902 42.3003 11.6462 42.1625 11.9277 42.0716C12.5534 41.8705 13.2474 41.8705 13.873 42.0716C14.1572 42.1671 14.4143 42.3104 14.6281 42.4924C14.8387 42.6763 15.0029 42.8931 15.1112 43.1301C15.2298 43.3951 15.2883 43.6759 15.284 43.9584ZM14.6121 43.9584C14.6171 43.7338 14.576 43.5101 14.4905 43.2969C14.4188 43.1142 14.3023 42.9457 14.1482 42.802C13.9981 42.666 13.8135 42.5594 13.6075 42.4898C13.1523 42.3451 12.6484 42.3451 12.1933 42.4898C11.9873 42.5594 11.8026 42.666 11.6526 42.802C11.4963 42.9449 11.3786 43.1135 11.307 43.2969C11.1443 43.7276 11.1443 44.1892 11.307 44.62C11.3793 44.803 11.497 44.9716 11.6526 45.1148C11.8028 45.25 11.9875 45.3557 12.1933 45.4244C12.6493 45.5655 13.1515 45.5655 13.6075 45.4244C13.8133 45.3557 13.998 45.25 14.1482 45.1148C14.3016 44.9707 14.4181 44.8024 14.4905 44.62C14.5764 44.4068 14.6175 44.1831 14.6121 43.9584V43.9584Z" fill="#AFB1B8"/>
<path d="M20.3264 44.6521L20.3936 44.8003C20.4192 44.7474 20.4416 44.6997 20.4672 44.6521C20.4916 44.6023 20.5193 44.5538 20.5504 44.5066L22.1853 42.0485C22.2173 42.0062 22.2461 41.9797 22.2781 41.9718C22.3216 41.9608 22.3671 41.9563 22.4125 41.9586H22.8956V45.9565H22.3229V43.0169C22.3229 42.9799 22.3229 42.9375 22.3229 42.8926C22.3198 42.8467 22.3198 42.8008 22.3229 42.755L20.6783 45.2474C20.6575 45.2848 20.624 45.3163 20.5821 45.3384C20.5401 45.3604 20.4913 45.372 20.4416 45.3718H20.3488C20.299 45.3724 20.25 45.3609 20.208 45.3388C20.1659 45.3167 20.1326 45.285 20.112 45.2474L18.4195 42.7391C18.4195 42.7867 18.4195 42.8344 18.4195 42.882C18.4195 42.9296 18.4195 42.9719 18.4195 43.009V45.9486H17.866V41.9586H18.3491C18.3945 41.9563 18.44 41.9608 18.4835 41.9718C18.5232 41.988 18.5548 42.0152 18.5731 42.0485L20.2432 44.5092C20.276 44.5547 20.3039 44.6025 20.3264 44.6521V44.6521Z" fill="#AFB1B8"/>
<path d="M26.479 44.4535V45.951H25.8391V41.9584H27.2661C27.5355 41.9541 27.8041 41.9836 28.0628 42.0457C28.2699 42.0943 28.4619 42.1791 28.6259 42.2944C28.768 42.4025 28.8776 42.5367 28.9459 42.686C29.0214 42.8489 29.0583 43.0223 29.0546 43.1967C29.0575 43.3718 29.0172 43.5455 28.9363 43.7073C28.8593 43.8605 28.7411 43.9971 28.5907 44.1068C28.4265 44.227 28.2336 44.3172 28.0244 44.3714C27.7753 44.4373 27.5148 44.4685 27.2533 44.464L26.479 44.4535ZM26.479 44.0248H27.2533C27.4215 44.0266 27.5889 44.0061 27.7492 43.964C27.8815 43.9272 28.0033 43.8687 28.1076 43.792C28.2037 43.7188 28.2782 43.6282 28.3251 43.5274C28.3775 43.4207 28.4036 43.3065 28.4019 43.1914C28.4094 43.0804 28.3875 42.9694 28.3377 42.8661C28.288 42.7629 28.2117 42.6698 28.114 42.5934C27.8695 42.4356 27.5625 42.3591 27.2533 42.3791H26.479V44.0248Z" fill="#AFB1B8"/>
<path d="M35.0793 45.9564H34.5738C34.523 45.958 34.4732 45.9449 34.433 45.9194C34.3967 45.8944 34.3681 45.8627 34.3498 45.8267L33.9147 44.8609H31.7294L31.2783 45.8267C31.2617 45.8621 31.2341 45.8931 31.1983 45.9167C31.1576 45.9438 31.1065 45.9579 31.0543 45.9564H30.5488L32.4685 41.958H33.134L35.0793 45.9564ZM31.9118 44.4719H33.7163L32.9548 42.8445C32.8966 42.7221 32.8485 42.5965 32.8108 42.4687L32.7372 42.6778C32.7149 42.7413 32.6893 42.7995 32.6669 42.8471L31.9118 44.4719Z" fill="#AFB1B8"/>
<path d="M37.8437 41.9766C37.8819 41.994 37.9148 42.0184 37.9397 42.0481L40.7392 45.062C40.7392 45.0144 40.7392 44.9668 40.7392 44.9218C40.7392 44.8768 40.7392 44.8318 40.7392 44.7895V41.9581H41.3119V45.9564H40.992C40.9465 45.9576 40.9015 45.9494 40.8608 45.9326C40.8213 45.9136 40.7865 45.8884 40.7584 45.8585L37.9621 42.8472C37.9652 42.893 37.9652 42.939 37.9621 42.9848C37.9621 43.0298 37.9621 43.0695 37.9621 43.1065V45.9564H37.3894V41.9581H37.7285C37.7681 41.9572 37.8074 41.9635 37.8437 41.9766V41.9766Z" fill="#AFB1B8"/>
<path d="M46.028 44.3661V45.9538H45.3881V44.3661L43.6187 41.9582H44.1914C44.2408 41.9557 44.2896 41.9679 44.329 41.9925C44.3638 42.0182 44.3931 42.0486 44.4154 42.0825L45.5224 43.6358C45.5672 43.702 45.6056 43.7628 45.6376 43.821C45.6696 43.8793 45.6952 43.9348 45.7176 43.9904L45.8008 43.8184C45.8318 43.7555 45.8682 43.6945 45.9096 43.6358L47.0006 42.0719C47.0236 42.0407 47.0516 42.0122 47.0838 41.9873C47.1218 41.9598 47.1711 41.9456 47.2214 41.9476H47.8005L46.028 44.3661Z" fill="#AFB1B8"/>
<path d="M20.0096 35.2484C20.288 35.2775 20.5696 35.3014 20.8543 35.3225C25.1714 33.7254 28.8235 31.1113 31.3541 27.807C33.8847 24.5027 35.1815 20.6549 35.0825 16.7444L30.3248 12.8097C31.2922 16.9731 30.8397 21.277 29.018 25.2398C27.1962 29.2027 24.0771 32.6681 20.0096 35.2484V35.2484Z" fill="#AFB1B8"/>
<path d="M18.3107 35.0654L18.4387 35.0865C22.7852 32.5154 26.099 28.9249 27.9516 24.7795C29.8043 20.6341 30.1105 16.1244 28.8307 11.8335L22.0541 6.22925C24.7951 10.8358 25.8983 15.9912 25.2357 21.096C24.573 26.2007 22.1716 31.045 18.3107 35.0654V35.0654Z" fill="#AFB1B8"/>
<path d="M41.2927 21.3645C40.1414 25.6612 37.3453 29.5362 33.3196 32.4143C32.1439 33.2595 30.8757 34.0124 29.5314 34.6634C32.8095 33.8666 35.8225 32.4578 38.3382 30.5456C40.8539 28.6335 42.805 26.2691 44.0411 23.6348L41.2927 21.3645Z" fill="#AFB1B8"/>
<path d="M40.2145 20.7319L36.3015 17.4957C36.2267 21.1853 34.9584 24.791 32.6284 27.938C30.2985 31.085 26.9919 33.6585 23.0524 35.3911H23.0716C23.9495 35.3908 24.8266 35.3475 25.6983 35.2614C29.38 34.0186 32.6325 32.0414 35.1654 29.5061C37.6983 26.9709 39.4329 23.9564 40.2145 20.7319V20.7319Z" fill="#AFB1B8"/>
<path d="M18.8771 3.86591L14.209 0C10.0359 1.33365 6.44688 3.67817 3.91163 6.7267C1.37638 9.77522 0.013022 13.3857 0 17.0857H0C0.0156404 21.174 1.67951 25.1413 4.72828 28.3595C7.77704 31.5778 12.0365 33.8632 16.8326 34.854C21.114 30.5401 23.6207 25.2095 23.9883 19.6368C24.356 14.064 22.5655 8.53951 18.8771 3.86591V3.86591Z" fill="#AFB1B8"/>
<path d="M51 20.1366C50.9831 15.286 48.6457 10.6381 44.4984 7.20823C40.3511 3.77834 34.731 1.84527 28.8659 1.83131V1.83131C26.1557 1.82899 23.4685 2.2426 20.9407 3.05113L49.5218 26.6882C50.5005 24.5988 51.0017 22.3773 51 20.1366V20.1366Z" fill="#AFB1B8"/>
</svg>
