<svg width="86" height="47" viewBox="0 0 86 47" fill="none" xmlns="http://www.w3.org/2000/svg">
<path d="M43.4843 22.0864C43.0781 21.4552 42.8837 20.7094 42.9299 19.9586V16.8736C42.9299 15.9279 43.1136 15.2092 43.4812 14.7175C43.8488 14.2259 44.4801 13.9811 45.3751 13.9832C46.2161 13.9832 46.8132 14.1924 47.1662 14.6108C47.5513 15.1447 47.7386 15.7976 47.6957 16.4562V17.1811H46.1912V16.4468C46.1966 16.2064 46.182 15.966 46.1476 15.7281C46.126 15.5654 46.0502 15.4149 45.9327 15.3013C45.7782 15.1787 45.5836 15.1194 45.3876 15.1349C45.1814 15.1194 44.977 15.1821 44.8144 15.3107C44.6834 15.4366 44.596 15.6017 44.5652 15.7814C44.5221 16.0332 44.5022 16.2886 44.506 16.5441V20.2881C44.4823 20.6493 44.5487 21.0107 44.6991 21.3394C44.774 21.4507 44.8779 21.5388 44.9994 21.5942C45.1209 21.6496 45.2552 21.6701 45.3876 21.6533C45.5803 21.6693 45.7715 21.6084 45.9202 21.4838C46.0428 21.3612 46.1217 21.2012 46.1445 21.0288C46.1796 20.7804 46.1953 20.5296 46.1912 20.2787V19.5192H47.6957V20.2128C47.738 20.8992 47.5552 21.5807 47.1755 22.1523C46.8298 22.6105 46.2411 22.8396 45.3751 22.8396C44.5091 22.8396 43.855 22.5948 43.4843 22.0864Z" fill="#AFB1B8"/>
<path d="M49.7485 22.1178C49.3685 21.6376 49.1785 20.9377 49.1785 20.0119V16.7669C49.1785 15.8505 49.3685 15.1569 49.7485 14.6862C50.1285 14.2154 50.764 13.9811 51.6548 13.9832C52.5395 13.9832 53.1718 14.2175 53.5518 14.6862C53.9318 15.1569 54.125 15.8505 54.125 16.7669V20.0119C54.125 20.9283 53.9318 21.6313 53.5456 22.1146C53.1593 22.5979 52.5301 22.8396 51.6548 22.8396C50.7796 22.8396 50.1317 22.5948 49.7485 22.1178ZM52.3557 21.3394C52.4918 21.0387 52.5538 20.7092 52.5364 20.3791V16.406C52.5538 16.0823 52.4929 15.7592 52.3588 15.4645C52.2825 15.3509 52.176 15.2613 52.0515 15.2058C51.927 15.1503 51.7896 15.1312 51.6548 15.1506C51.5197 15.1317 51.382 15.151 51.2571 15.2064C51.1322 15.2618 51.0251 15.3512 50.9478 15.4645C50.8108 15.7583 50.7487 16.0819 50.7671 16.406V20.3979C50.7482 20.7281 50.8102 21.058 50.9478 21.3583C51.0355 21.4595 51.1437 21.5407 51.2651 21.5962C51.3865 21.6518 51.5184 21.6806 51.6517 21.6806C51.7851 21.6806 51.9169 21.6518 52.0384 21.5962C52.1598 21.5407 52.268 21.4595 52.3557 21.3583V21.3394Z" fill="#AFB1B8"/>
<path d="M55.9346 14.0779H57.5544L58.7723 20.0652L60.0183 14.0779H61.5945L61.7533 22.7199H60.5883L60.4637 16.7138L59.2614 22.7199H58.3269L57.0809 16.6918L56.9657 22.7199H55.7882L55.9346 14.0779Z" fill="#AFB1B8"/>
<path d="M63.5693 14.0779H66.0924C67.546 14.0779 68.2728 14.8959 68.2728 16.5318C68.2728 18.0987 67.5076 18.8811 65.9772 18.879H65.1174V22.7199H63.56L63.5693 14.0779ZM65.7249 17.7713C65.8787 17.791 66.035 17.7767 66.1829 17.7296C66.3308 17.6825 66.4668 17.6035 66.5815 17.4983C66.7601 17.2064 66.8388 16.8636 66.8057 16.5224C66.8139 16.2587 66.7887 15.9951 66.731 15.7379C66.7088 15.652 66.6698 15.5713 66.6163 15.5008C66.5628 15.4302 66.4959 15.371 66.4195 15.3268C66.2033 15.2223 65.9643 15.1748 65.7249 15.1887H65.1206V17.7713H65.7249Z" fill="#AFB1B8"/>
<path d="M70.5188 14.0779H72.1915L73.9078 22.7199H72.4563L72.1167 20.7273H70.6247L70.2758 22.7199H68.8025L70.5188 14.0779ZM71.9485 19.7263L71.366 16.0987L70.7836 19.7263H71.9485Z" fill="#AFB1B8"/>
<path d="M75.2939 14.0779H76.3842L78.4712 19.0077V14.0779H79.7639V22.7199H78.7266L76.6271 17.5736V22.7199H75.2908L75.2939 14.0779Z" fill="#AFB1B8"/>
<path d="M82.7917 19.4248L81.0566 14.09H82.5175L83.5766 17.5168L84.5703 14.09H86L84.2868 19.4248V22.7199H82.7917V19.4248Z" fill="#AFB1B8"/>
<path d="M45.8891 26.4983V26.9502H44.6182V30.4619H44.0856V26.9502H42.8084V26.4983H45.8891Z" fill="#AFB1B8"/>
<path d="M49.873 30.4622H49.4619C49.4201 30.4648 49.3789 30.4514 49.3466 30.4246C49.3155 30.4015 49.2917 30.3699 49.2781 30.3336L48.9105 29.3921H47.1474L46.7799 30.3336C46.7694 30.3729 46.7502 30.4094 46.7238 30.4402C46.6912 30.4665 46.6502 30.4799 46.6085 30.4779H46.1974L47.7548 26.5145H48.2969L49.873 30.4622ZM47.2938 28.9905H48.7641L48.1411 27.3775C48.0951 27.2555 48.0567 27.1308 48.0258 27.0041C48.004 27.0794 47.9854 27.1516 47.9667 27.2143L47.9106 27.3806L47.2938 28.9905Z" fill="#AFB1B8"/>
<path d="M52.5581 30.0729C52.6557 30.078 52.7534 30.078 52.8509 30.0729C52.9352 30.0641 53.0185 30.0484 53.1001 30.0258C53.1765 30.007 53.2514 29.9828 53.3244 29.9536C53.3929 29.9254 53.4615 29.8909 53.5331 29.8563V28.965H52.9101C52.8947 28.9659 52.8793 28.9636 52.8648 28.9582C52.8504 28.9528 52.8371 28.9444 52.826 28.9336C52.8158 28.9247 52.8077 28.9136 52.8023 28.9011C52.7969 28.8886 52.7944 28.875 52.7949 28.8614V28.557H54.0035V30.076C53.9048 30.1471 53.8007 30.2101 53.692 30.2643C53.5809 30.3195 53.4652 30.3647 53.3462 30.3993C53.2188 30.4371 53.0886 30.4643 52.9568 30.4809C52.8058 30.4978 52.654 30.5062 52.5021 30.506C52.2334 30.5083 51.9669 30.4582 51.7171 30.3585C51.4839 30.264 51.272 30.1231 51.0941 29.9442C50.9207 29.7635 50.7842 29.5502 50.6923 29.3165C50.5941 29.0538 50.5455 28.7749 50.549 28.4942C50.5457 28.2118 50.5932 27.9311 50.6892 27.6657C50.7788 27.4308 50.9156 27.2171 51.091 27.038C51.2688 26.8597 51.4807 26.7197 51.714 26.6268C51.9807 26.5257 52.2638 26.4757 52.5488 26.4793C52.6938 26.4791 52.8386 26.4907 52.9818 26.5138C53.1084 26.5346 53.2326 26.5683 53.3524 26.6143C53.4614 26.6555 53.5658 26.7081 53.6639 26.7712C53.7594 26.8331 53.85 26.9024 53.9349 26.9783L53.7854 27.2231C53.7737 27.2455 53.7563 27.2643 53.7349 27.2775C53.7135 27.2908 53.689 27.298 53.6639 27.2985C53.6295 27.2973 53.596 27.2865 53.5674 27.2671C53.5207 27.242 53.4708 27.2106 53.4147 27.1729C53.3485 27.1311 53.2787 27.0954 53.206 27.0662C53.1132 27.0287 53.0173 26.9993 52.9195 26.9783C52.789 26.9541 52.6565 26.9426 52.5239 26.9438C52.3184 26.9415 52.1143 26.9788 51.9227 27.0537C51.7494 27.1237 51.5931 27.2308 51.4648 27.3675C51.3357 27.51 51.2371 27.6777 51.1751 27.8602C51.0359 28.2895 51.0359 28.7523 51.1751 29.1816C51.2433 29.368 51.3494 29.5379 51.4866 29.6806C51.6143 29.8166 51.7694 29.9235 51.9414 29.9944C52.1394 30.0629 52.3494 30.0896 52.5581 30.0729V30.0729Z" fill="#AFB1B8"/>
<path d="M57.5233 30.01H59.2241V30.4619H57.0031V26.4983H57.5358L57.5233 30.01Z" fill="#AFB1B8"/>
<path d="M60.9934 30.4619H60.4607V26.4983H60.9934V30.4619Z" fill="#AFB1B8"/>
<path d="M62.9745 26.5172C63.0061 26.5354 63.0337 26.56 63.0555 26.5894L65.3324 29.5771C65.3293 29.5301 65.3293 29.4829 65.3324 29.4359C65.3324 29.392 65.3324 29.348 65.3324 29.3072V26.4827H65.7966V30.4622H65.5287C65.489 30.4654 65.4492 30.4578 65.4134 30.4402C65.3811 30.4204 65.3526 30.3949 65.3293 30.3649L63.0555 27.3803C63.0555 27.4273 63.0555 27.4713 63.0555 27.5152C63.0555 27.5591 63.0555 27.5999 63.0555 27.6376V30.4622H62.61V26.4984H62.8873C62.9173 26.4984 62.947 26.5048 62.9745 26.5172V26.5172Z" fill="#AFB1B8"/>
<path d="M69.7183 26.4983V26.9345H67.8306V28.2432H69.36V28.6637H67.8306V30.0163H69.7183V30.4525H67.2824V26.4983H69.7183Z" fill="#AFB1B8"/>
<path d="M13.9019 2.02098L37.5536 8.78688V32.4958L13.9019 25.733V2.02098ZM12.3849 0V26.8847L39.0675 34.5199V7.63831L12.3849 0Z" fill="#AFB1B8"/>
<path d="M26.6856 47L0 39.3585V12.4766L26.6856 20.115V47Z" fill="#AFB1B8"/>
<path d="M12.8273 1.71655L36.1705 8.3976L26.2433 18.4019L2.89688 11.7177L12.8273 1.71655ZM12.3849 0L0 12.4772L26.6856 20.1153L39.0674 7.63818L12.3849 0Z" fill="#AFB1B8"/>
<path d="M28.187 45.4877L39.0674 34.5232L28.187 31.4071V45.4877Z" fill="#AFB1B8"/>
</svg>
