<svg width="55" height="48" viewBox="0 0 55 48" fill="none" xmlns="http://www.w3.org/2000/svg">
<path d="M7.45428 0L16.5331 6.74555H41.8587V25.5625L50.9375 32.308V0H7.45428Z" fill="#AFB1B8"/>
<path d="M0 6.4613V37.8464H42.2408V25.3711L16.8008 6.46907L0 6.4613ZM34.1941 33.2555H6.68409V12.1474H8.62868V31.8262H34.1941V33.2555Z" fill="#AFB1B8"/>
<path d="M11.7955 43.7456L12.6133 42.061H13.2969L12.1055 44.3071V45.6157H11.4854V44.3071L10.2916 42.061H10.9776L11.7955 43.7456ZM15.3062 44.7881H13.9293L13.6412 45.6157H12.9991L14.3419 42.061H14.8961L16.2413 45.6157H15.5967L15.3062 44.7881ZM14.1026 44.29H15.1329L14.6177 42.8154L14.1026 44.29ZM17.7403 44.6562C17.7403 44.4919 17.7851 44.3413 17.8746 44.2046C17.9641 44.0662 18.1407 43.9027 18.4044 43.7139C18.266 43.5397 18.1692 43.3916 18.1138 43.2695C18.0601 43.1475 18.0333 43.0295 18.0333 42.9155C18.0333 42.6372 18.1179 42.4175 18.2872 42.2563C18.4564 42.0936 18.6843 42.0122 18.9708 42.0122C19.2296 42.0122 19.4411 42.0887 19.6055 42.2417C19.7715 42.3931 19.8546 42.5811 19.8546 42.8057C19.8546 42.9538 19.8171 43.0905 19.7422 43.2158C19.6674 43.3395 19.5445 43.4632 19.3736 43.5869L19.1319 43.7627L19.8179 44.5732C19.9172 44.3779 19.9669 44.1606 19.9669 43.9214H20.482C20.482 44.3592 20.3795 44.7181 20.1744 44.998L20.6968 45.6157H20.0084L19.8082 45.3789C19.5543 45.5693 19.2515 45.6646 18.9 45.6646C18.5484 45.6646 18.2668 45.5718 18.0552 45.3862C17.8453 45.1991 17.7403 44.9557 17.7403 44.6562ZM18.9171 45.1909C19.1172 45.1909 19.3044 45.1242 19.4786 44.9907L18.7022 44.0752L18.6265 44.1289C18.4312 44.277 18.3336 44.4463 18.3336 44.6367C18.3336 44.8011 18.3865 44.9346 18.4922 45.0371C18.598 45.1396 18.7396 45.1909 18.9171 45.1909ZM18.5899 42.9009C18.5899 43.0376 18.6737 43.2093 18.8414 43.416L19.1124 43.2305L19.188 43.1694C19.289 43.0799 19.3394 42.9652 19.3394 42.8252C19.3394 42.7324 19.3044 42.6535 19.2344 42.5884C19.1644 42.5216 19.0757 42.4883 18.9683 42.4883C18.8528 42.4883 18.7608 42.5273 18.6924 42.6055C18.6241 42.6836 18.5899 42.7821 18.5899 42.9009ZM25.0474 44.4585C25.0116 44.8377 24.8716 45.134 24.6275 45.3472C24.3834 45.5588 24.0587 45.6646 23.6534 45.6646C23.3702 45.6646 23.1203 45.5978 22.9039 45.4644C22.689 45.3293 22.523 45.138 22.4058 44.8906C22.2886 44.6432 22.2276 44.356 22.2227 44.0288V43.6968C22.2227 43.3615 22.2821 43.0661 22.4009 42.8105C22.5198 42.555 22.6898 42.3581 22.9112 42.2197C23.1342 42.0814 23.3913 42.0122 23.6827 42.0122C24.0749 42.0122 24.3907 42.1188 24.6299 42.332C24.8692 42.5452 25.0084 42.8464 25.0474 43.2354H24.4322C24.4029 42.9798 24.328 42.7959 24.2076 42.6836C24.0888 42.5697 23.9138 42.5127 23.6827 42.5127C23.4141 42.5127 23.2074 42.6112 23.0626 42.8081C22.9193 43.0034 22.8461 43.2907 22.8428 43.6699V43.9849C22.8428 44.369 22.9112 44.6619 23.0479 44.8638C23.1863 45.0656 23.3881 45.1665 23.6534 45.1665C23.8959 45.1665 24.0782 45.112 24.2003 45.0029C24.3223 44.8939 24.3996 44.7124 24.4322 44.4585H25.0474ZM28.4385 43.9312C28.4385 44.2795 28.3783 44.5854 28.2579 44.8491C28.1374 45.1112 27.9649 45.313 27.7403 45.4546C27.5173 45.5946 27.2602 45.6646 26.9688 45.6646C26.6807 45.6646 26.4236 45.5946 26.1973 45.4546C25.9727 45.313 25.7986 45.112 25.6749 44.8516C25.5528 44.5911 25.4909 44.2909 25.4893 43.9507V43.7505C25.4893 43.4038 25.5504 43.0978 25.6724 42.8325C25.7961 42.5672 25.9695 42.3646 26.1924 42.2246C26.4171 42.083 26.6742 42.0122 26.9639 42.0122C27.2536 42.0122 27.51 42.0822 27.733 42.2222C27.9576 42.3605 28.1309 42.5607 28.253 42.8228C28.3751 43.0832 28.4369 43.3867 28.4385 43.7334V43.9312ZM27.8209 43.7456C27.8209 43.3517 27.746 43.0498 27.5963 42.8398C27.4481 42.6299 27.2374 42.5249 26.9639 42.5249C26.697 42.5249 26.4879 42.6299 26.3365 42.8398C26.1867 43.0482 26.1102 43.3436 26.107 43.7261V43.9312C26.107 44.3218 26.1827 44.6237 26.334 44.8369C26.487 45.0501 26.6986 45.1567 26.9688 45.1567C27.2422 45.1567 27.4522 45.0526 27.5987 44.8442C27.7468 44.6359 27.8209 44.3315 27.8209 43.9312V43.7456Z" fill="#AFB1B8"/>
</svg>
